<svg width="41" height="40" viewBox="0 0 41 40" fill="none" xmlns="http://www.w3.org/2000/svg">
<rect width="41" height="40" rx="20" fill="white"/>
<path d="M20.5 12.5C20.7486 12.5 20.9871 12.5988 21.1629 12.7746C21.3387 12.9504 21.4375 13.1889 21.4375 13.4375V19.0625H27.0625C27.3111 19.0625 27.5496 19.1613 27.7254 19.3371C27.9012 19.5129 28 19.7514 28 20C28 20.2486 27.9012 20.4871 27.7254 20.6629C27.5496 20.8387 27.3111 20.9375 27.0625 20.9375H21.4375V26.5625C21.4375 26.8111 21.3387 27.0496 21.1629 27.2254C20.9871 27.4012 20.7486 27.5 20.5 27.5C20.2514 27.5 20.0129 27.4012 19.8371 27.2254C19.6613 27.0496 19.5625 26.8111 19.5625 26.5625V20.9375H13.9375C13.6889 20.9375 13.4504 20.8387 13.2746 20.6629C13.0988 20.4871 13 20.2486 13 20C13 19.7514 13.0988 19.5129 13.2746 19.3371C13.4504 19.1613 13.6889 19.0625 13.9375 19.0625H19.5625V13.4375C19.5625 13.1889 19.6613 12.9504 19.8371 12.7746C20.0129 12.5988 20.2514 12.5 20.5 12.5Z" fill="#DE8667"/>
</svg>
